<svg xmlns="http://www.w3.org/2000/svg" viewBox="0 0 143.3 62.19"><defs><style>.cls-1{fill:#ad182d;}.cls-2{fill:#1d1d1b;}</style></defs><g id="Capa_2" data-name="Capa 2"><g id="Capa_1-2" data-name="Capa 1"><path class="cls-1" d="M26,48.2C37.36,43.09,58.26,34,142.43,31.33c2.14-.91-.76-2.55-.76-2.55s-82,1-112.54,13.54l-4.89,1.73s-2.78.6-2.28,3.07S25,48.63,26,48.2Z"/><path class="cls-1" d="M62.31,23.84c-1.52,4.27-.28,6.3,2.5,6s5.61-2.67,7.13-6.95l.28-.79c1.52-4.28.28-6.3-2.5-6s-5.61,2.67-7.13,7Zm3.4-.28.32-.89c1-2.67,1.86-3.88,2.76-4s1,1,0,3.7l-.32.9c-.92,2.58-1.86,3.88-2.76,4S64.79,26.15,65.71,23.56Z"/><path class="cls-1" d="M121.77,7.6c.74-2,1.34-3.57,1.44-3.95.21-.8.77-2.91-1.37-3.57a2.1,2.1,0,0,0-2.66,2c0,.14,0,.26,0,.39A6,6,0,0,1,119,4.09a44.91,44.91,0,0,1-1.3,4.42c-.07.18-.17.46-.3.85-.3.89-.8,2.38-1.57,4.53-1,2.67-1.73,4.82-2.34,6.49-.36,1-.64,1.77-.8,2.23a1.34,1.34,0,0,0,.71,1.89h0a2.36,2.36,0,0,0,2.8-1.62c.46-1.25.82-2.27,1.2-3.35.27-.79.56-1.61.9-2.56.56-1.54,1.5-4.11,2.49-6.76C121.12,9.32,121.45,8.43,121.77,7.6Z"/><path class="cls-1" d="M55.59,30.74h0a2.33,2.33,0,0,0,2.79-1.61c.47-1.26.82-2.27,1.2-3.35.28-.79.56-1.61.91-2.56.55-1.54,1.5-4.11,2.49-6.77.33-.89.67-1.79,1-2.61.75-2,1.34-3.57,1.44-3.95.21-.8.77-2.92-1.37-3.57a2,2,0,0,0-1.78.32,2.07,2.07,0,0,0-.87,1.67c0,.14,0,.26,0,.38a6.33,6.33,0,0,1-.19,1.63c-.59,2.31-1,3.49-1.31,4.42-.07.19-.16.47-.29.86-.3.89-.8,2.37-1.57,4.53-1,2.67-1.74,4.81-2.34,6.48-.36,1-.65,1.77-.81,2.23A1.35,1.35,0,0,0,55.59,30.74Z"/><path class="cls-1" d="M86.59,24.31s0,.1,0,.15.13.42.23.65a2.94,2.94,0,0,0,1.69,1.7,3,3,0,0,0,.43.12,3.54,3.54,0,0,0,1.84-.16,2.05,2.05,0,0,0,.82-.61.77.77,0,0,0,.18-.75.83.83,0,0,0-.62-.55l-.19,0-.14,0c-.43-.13-.66-.28-.75-.5a4,4,0,0,1-.24-1c0-.31,0-.44.42-.6l.42-.15c.24-.09.49-.18.73-.29a8,8,0,0,0,2.71-2.05l.07-.07A5.62,5.62,0,0,0,96,16.68a2.88,2.88,0,0,0-.44-1.82,2.36,2.36,0,0,0-2.39-.75,7.06,7.06,0,0,0-3.77,2,10.18,10.18,0,0,0-2.66,4.79,7.58,7.58,0,0,0-.14,3.37Zm3.55-4.94a4.43,4.43,0,0,1,1.68-2.53,2.81,2.81,0,0,1,.38-.2.82.82,0,0,1,.62.06A.44.44,0,0,1,93,17a2.34,2.34,0,0,1-.19,1.32,4.85,4.85,0,0,1-2.55,2.13,1.15,1.15,0,0,1-.28.09A3.67,3.67,0,0,1,90.14,19.37Z"/><path class="cls-1" d="M74.35,32.33,75.94,28l.49-1.38a2,2,0,0,0,1.78,1.67c2.1.2,3.85-1.59,4.71-3a24.37,24.37,0,0,0,2.4-6c.74-2.64.18-3.87-.9-4.25a2.93,2.93,0,0,0-1.87.15,11.56,11.56,0,0,1-1.88.9l0,0h-.06c-.83.07-1.22-.79-2.35-.63a2.65,2.65,0,0,0-2.14,2c-.29.81-3.25,9.15-3.56,10-.39,1.11-1.16,3.19-1.75,4.82l-.13.36-1,3a1.54,1.54,0,0,0,1,1.78A1.83,1.83,0,0,0,73,36.06c0-.13.14-.39.27-.74Zm3.41-9.62c.16-.52.62-1.82,1-2.7a7.85,7.85,0,0,1,.86-1.49c.44-.56,1.17-1,1.67-.83.72.27.32,1.71.18,2.21-.18.66-.37,1.21-.6,1.88a14.17,14.17,0,0,1-1.14,2.54c-.2.31-.76,1.36-1.74,1.27S77.6,23.21,77.76,22.71Z"/><path class="cls-1" d="M45.39,28.72l0,.06.05.17a6.81,6.81,0,0,0,.25.7,3.2,3.2,0,0,0,1.82,1.84,2.52,2.52,0,0,0,.47.13,3.8,3.8,0,0,0,2-.18,2.11,2.11,0,0,0,.88-.65.84.84,0,0,0,.2-.79.92.92,0,0,0-.66-.57l-.2,0-.16,0c-.49-.14-.74-.31-.85-.57a3.85,3.85,0,0,1-.26-1.1c0-.37,0-.53.48-.7l.46-.17c.26-.1.53-.19.8-.32a8.73,8.73,0,0,0,3-2.24l.07-.08a6,6,0,0,0,1.9-3.75,3.08,3.08,0,0,0-.48-2,2.55,2.55,0,0,0-2.57-.81,7.66,7.66,0,0,0-4.11,2.18,11.1,11.1,0,0,0-2.91,5.23A8.16,8.16,0,0,0,45.39,28.72Zm3.84-5.36a4.87,4.87,0,0,1,1.85-2.79,2,2,0,0,1,.43-.23.83.83,0,0,1,.71.08.47.47,0,0,1,.25.36,2.6,2.6,0,0,1-.21,1.47,5.34,5.34,0,0,1-2.82,2.36,1.7,1.7,0,0,1-.36.11A4,4,0,0,1,49.23,23.36Z"/><path class="cls-1" d="M23.75,31.15c0,.05,0,.11.06.18a5.3,5.3,0,0,0,.25.73A3.32,3.32,0,0,0,26,34a2.72,2.72,0,0,0,.49.13,4,4,0,0,0,2.07-.18,2.27,2.27,0,0,0,.91-.68.83.83,0,0,0,.2-.81.91.91,0,0,0-.67-.58l-.21-.05-.17,0c-.51-.15-.78-.33-.9-.61A4.28,4.28,0,0,1,27.4,30c0-.37,0-.56.52-.76l.48-.17c.28-.1.56-.2.84-.33a9.28,9.28,0,0,0,3.09-2.34l.07-.08a6.32,6.32,0,0,0,2-3.91,3.34,3.34,0,0,0-.5-2.06,2.66,2.66,0,0,0-2.67-.83,8.07,8.07,0,0,0-4.3,2.27,11.66,11.66,0,0,0-3,5.46,8.47,8.47,0,0,0-.15,3.84Zm4-5.66a5.1,5.1,0,0,1,1.94-2.94,2.56,2.56,0,0,1,.46-.24.94.94,0,0,1,.76.08.59.59,0,0,1,.27.39,2.7,2.7,0,0,1-.22,1.55,5.61,5.61,0,0,1-3,2.48,2.34,2.34,0,0,1-.4.13A3.79,3.79,0,0,1,27.71,25.49Z"/><path class="cls-1" d="M16.83,9.24C11.47,7.7,5.05,10.75.66,14.5-.88,15.81.57,17.4,2,16.31c7.63-6,14.56-4.55,16.31-1.91,2.43,3.66,1.7,8.41-.84,13.3-.61,1.36-4.21,8.22-10.67,10.74a9.65,9.65,0,0,1-2.26.69l3.2-9a7.36,7.36,0,0,1,2.1-3,11.15,11.15,0,0,0,1.76-1.93,2.43,2.43,0,0,0-1.94-3.81C7.55,21.29,6,24.68,5.21,27.14c0,0,0,0,0,.05L.17,41.3a2.28,2.28,0,0,0,2.51,3c3.25-.17,9.53-3.81,11.91-6.21C22,30.55,23.35,23.39,23.44,19.5,23.56,14.7,22.05,11,16.83,9.24Z"/><path class="cls-1" d="M104.18,13.45c-.44,0-1,.11-1.66.18s-.62-.32-1.92-.2-1.91,1.14-2.27,2.19-2.42,6.92-3,8.62c-.68,1.86.87,2,1.68,1.91,1.13-.13,1.63-1.35,1.8-1.82.34-1,.92-2.68,1.82-5.11a5,5,0,0,1,3.11-2.87c1.46-.39,1.52-.75,1.62-1a1.88,1.88,0,0,0,0-1.24A1,1,0,0,0,104.18,13.45Z"/><path class="cls-1" d="M36.23,32.9h.05a2.3,2.3,0,0,0,2.66-.9c.38-.65,6.27-10.67,6.56-11.22a1.6,1.6,0,0,0-.35-2.27,1.47,1.47,0,0,0-1.88.4c-.12.22-3.6,6.66-4.73,8.81.3-2,1-6,1.16-6.95a1.54,1.54,0,0,0-.55-1.54A1.78,1.78,0,0,0,37.39,19a1.62,1.62,0,0,0-1,1.29c0,.3-1.13,9.88-1.25,11A1.57,1.57,0,0,0,36.23,32.9Z"/><path class="cls-1" d="M130.4,10.53a2.9,2.9,0,0,0-1.86.15,11.56,11.56,0,0,1-1.88.9h-.11c-.83.06-1.21-.79-2.35-.64a2.54,2.54,0,0,0-2,2l-.16.44h0c-.08.24-.27.8-.53,1.53-.63,1.78-1.47,4.16-1.68,4.77-.35,1-.66,1.83-.83,2.32-.69,1.86.87,2,1.68,1.91,1.08-.13,1.59-1.26,1.77-1.76h0v0l1.32-3.86v0c.06-.17.15-.44.25-.75l.24-.64c.17-.45.35-.92.52-1.3a8.53,8.53,0,0,1,.87-1.5c.43-.55,1.16-1,1.67-.83.71.28.32,1.71.18,2.22l-.12.4c-.74,2.1-1.66,4.69-2,5.71-.68,1.86.87,2,1.68,1.91,1.13-.13,1.63-1.35,1.8-1.82l.29-.86,0,0c.52-1.49,1.39-3.25,2.2-6.12C132.05,12.14,131.48,10.91,130.4,10.53Z"/><path class="cls-1" d="M142.06,10.37a3,3,0,0,0-1.87.16,11.61,11.61,0,0,1-1.88.9h-.1c-.83.06-1.22-.79-2.35-.64a2.55,2.55,0,0,0-2.05,2c0,.09-.08.25-.15.44h0c-.08.23-.27.8-.53,1.53-.63,1.78-1.47,4.16-1.69,4.77-.34,1-.65,1.83-.83,2.31-.68,1.87.87,2,1.68,1.92,1.09-.13,1.6-1.26,1.78-1.77h0l1.33-3.86h0c.06-.18.14-.44.25-.75l.24-.64c.16-.45.35-.92.52-1.31a8.4,8.4,0,0,1,.87-1.49c.43-.55,1.16-1,1.66-.83.72.27.32,1.71.18,2.22,0,.13-.07.27-.11.4-.74,2.09-1.66,4.68-2,5.71-.68,1.86.88,2,1.68,1.91,1.14-.13,1.64-1.35,1.8-1.82.09-.24.18-.53.3-.87l0,0c.51-1.48,1.39-3.24,2.19-6.11C143.71,12,143.14,10.76,142.06,10.37Z"/><path class="cls-2" d="M43.78,56.07v5.62a.48.48,0,1,1-1,0V59.24H40v2.45a.49.49,0,1,1-1,0V56.07a.49.49,0,1,1,1,0V58.4h2.82V56.07a.48.48,0,1,1,1,0Z"/><path class="cls-2" d="M49.56,61.7V56.07a.49.49,0,1,1,1,0V61.7a.49.49,0,0,1-1,0Z"/><path class="cls-2" d="M61.28,58.84v.89a2.6,2.6,0,0,1-5.19,0V58.1a2.63,2.63,0,0,1,4.83-1.34.43.43,0,0,1-.23.61.49.49,0,0,1-.58-.14,1.66,1.66,0,0,0-1.39-.8,1.59,1.59,0,0,0-1.66,1.72v1.51a1.56,1.56,0,0,0,1.63,1.67,1.53,1.53,0,0,0,1.62-1.66v-.43H58.93a.42.42,0,1,1,0-.84h1.92A.39.39,0,0,1,61.28,58.84Z"/><path class="cls-2" d="M71.55,56.07v5.62a.49.49,0,1,1-1,0V59.24H67.77v2.45a.49.49,0,1,1-1,0V56.07a.49.49,0,1,1,1,0V58.4h2.81V56.07a.49.49,0,1,1,1,0Z"/><path class="cls-2" d="M84.76,56.17,83.5,61.55a.71.71,0,0,1-.73.6h-.11a.69.69,0,0,1-.72-.6l-1.09-4.8-1.09,4.8a.69.69,0,0,1-.72.6h-.11a.7.7,0,0,1-.72-.6L77,56.17a.43.43,0,0,1,.36-.57.43.43,0,0,1,.56.38L79,61.2l1.08-5a.62.62,0,0,1,.7-.57h.12a.64.64,0,0,1,.71.57l1.08,5L83.83,56a.43.43,0,0,1,.56-.38A.44.44,0,0,1,84.76,56.17Z"/><path class="cls-2" d="M94.58,62.15a.44.44,0,0,1-.6-.33l-.39-1.16h-2.8l-.39,1.16a.48.48,0,1,1-.91-.28l1.85-5.37a.77.77,0,0,1,.8-.56h.1a.77.77,0,0,1,.8.56l1.85,5.37A.44.44,0,0,1,94.58,62.15Zm-1.27-2.33-1.12-3.29-1.12,3.29Z"/><path class="cls-2" d="M104.18,56.31l-2,3.18v2.2a.49.49,0,1,1-1,0v-2.2l-2-3.18a.42.42,0,0,1,.17-.65.44.44,0,0,1,.65.2l1.63,2.7,1.64-2.7a.46.46,0,1,1,.81.45Z"/></g></g></svg>